<?xml version="1.0" encoding="UTF-8" standalone="no"?>
<!DOCTYPE svg PUBLIC "-//W3C//DTD SVG 1.1//EN"
 "http://www.w3.org/Graphics/SVG/1.1/DTD/svg11.dtd">
<!-- Generated by graphviz version 4.0.0 (0)
 -->
<!-- Title: ProgressTest Pages: 1 -->
<svg width="1052pt" height="691pt"
 viewBox="0.00 0.00 1051.60 690.60" xmlns="http://www.w3.org/2000/svg" xmlns:xlink="http://www.w3.org/1999/xlink">
<g id="graph0" class="graph" transform="scale(1 1) rotate(0) translate(28.8 661.8)">
<title>ProgressTest</title>
<polygon fill="white" stroke="transparent" points="-28.8,28.8 -28.8,-661.8 1022.8,-661.8 1022.8,28.8 -28.8,28.8"/>
<text text-anchor="middle" x="497" y="-618.6" font-family="Arial Bold" font-size="13.00">Progress Test &#45; Models</text>
<!-- m_ActiveAdmin::Comment -->
<g id="node1" class="node">
<title>m_ActiveAdmin::Comment</title>
<path fill="none" stroke="black" d="M12,-487.5C12,-487.5 132,-487.5 132,-487.5 138,-487.5 144,-493.5 144,-499.5 144,-499.5 144,-583.5 144,-583.5 144,-589.5 138,-595.5 132,-595.5 132,-595.5 12,-595.5 12,-595.5 6,-595.5 0,-589.5 0,-583.5 0,-583.5 0,-499.5 0,-499.5 0,-493.5 6,-487.5 12,-487.5"/>
<text text-anchor="start" x="6.5" y="-582.7" font-family="Arial Bold" font-size="11.00">ActiveAdmin::Comment</text>
<polyline fill="none" stroke="black" points="0,-575.5 144,-575.5 "/>
<text text-anchor="start" x="7" y="-562.5" font-family="Arial" font-size="10.00">author_id </text>
<text text-anchor="start" x="50" y="-562.5" font-family="Arial Italic" font-size="10.00" fill="#999999">integer (8)</text>
<text text-anchor="start" x="7" y="-549.5" font-family="Arial" font-size="10.00">author_type </text>
<text text-anchor="start" x="62" y="-549.5" font-family="Arial Italic" font-size="10.00" fill="#999999">string</text>
<text text-anchor="start" x="7" y="-536.5" font-family="Arial" font-size="10.00">body </text>
<text text-anchor="start" x="32" y="-536.5" font-family="Arial Italic" font-size="10.00" fill="#999999">text ∗</text>
<text text-anchor="start" x="7" y="-523.5" font-family="Arial" font-size="10.00">namespace </text>
<text text-anchor="start" x="61" y="-523.5" font-family="Arial Italic" font-size="10.00" fill="#999999">string ∗</text>
<text text-anchor="start" x="7" y="-510.5" font-family="Arial" font-size="10.00">resource_id </text>
<text text-anchor="start" x="61" y="-510.5" font-family="Arial Italic" font-size="10.00" fill="#999999">integer (8)</text>
<text text-anchor="start" x="7" y="-497.5" font-family="Arial" font-size="10.00">resource_type </text>
<text text-anchor="start" x="72" y="-497.5" font-family="Arial Italic" font-size="10.00" fill="#999999">string</text>
</g>
<!-- m_ActiveStorage::Attachment -->
<g id="node2" class="node">
<title>m_ActiveStorage::Attachment</title>
<path fill="none" stroke="black" d="M192.5,-165C192.5,-165 321.5,-165 321.5,-165 327.5,-165 333.5,-171 333.5,-177 333.5,-177 333.5,-209 333.5,-209 333.5,-215 327.5,-221 321.5,-221 321.5,-221 192.5,-221 192.5,-221 186.5,-221 180.5,-215 180.5,-209 180.5,-209 180.5,-177 180.5,-177 180.5,-171 186.5,-165 192.5,-165"/>
<text text-anchor="start" x="186" y="-208.2" font-family="Arial Bold" font-size="11.00">ActiveStorage::Attachment</text>
<polyline fill="none" stroke="black" points="180.5,-201 333.5,-201 "/>
<text text-anchor="start" x="192" y="-188" font-family="Arial" font-size="10.00">name </text>
<text text-anchor="start" x="220" y="-188" font-family="Arial Italic" font-size="10.00" fill="#999999">string ∗</text>
<text text-anchor="start" x="192" y="-175" font-family="Arial" font-size="10.00">record_type </text>
<text text-anchor="start" x="247" y="-175" font-family="Arial Italic" font-size="10.00" fill="#999999">string ∗</text>
</g>
<!-- m_ActiveStorage::Blob -->
<g id="node3" class="node">
<title>m_ActiveStorage::Blob</title>
<path fill="none" stroke="black" d="M197,-329.5C197,-329.5 317,-329.5 317,-329.5 323,-329.5 329,-335.5 329,-341.5 329,-341.5 329,-438.5 329,-438.5 329,-444.5 323,-450.5 317,-450.5 317,-450.5 197,-450.5 197,-450.5 191,-450.5 185,-444.5 185,-438.5 185,-438.5 185,-341.5 185,-341.5 185,-335.5 191,-329.5 197,-329.5"/>
<text text-anchor="start" x="201.5" y="-437.7" font-family="Arial Bold" font-size="11.00">ActiveStorage::Blob</text>
<polyline fill="none" stroke="black" points="185,-430.5 329,-430.5 "/>
<text text-anchor="start" x="192" y="-417" font-family="Arial" font-size="10.00">byte_size </text>
<text text-anchor="start" x="238" y="-417" font-family="Arial Italic" font-size="10.00" fill="#999999">integer (8) ∗</text>
<text text-anchor="start" x="192" y="-404" font-family="Arial" font-size="10.00">checksum </text>
<text text-anchor="start" x="241" y="-404" font-family="Arial Italic" font-size="10.00" fill="#999999">string ∗</text>
<text text-anchor="start" x="192" y="-391" font-family="Arial" font-size="10.00">content_type </text>
<text text-anchor="start" x="252" y="-391" font-family="Arial Italic" font-size="10.00" fill="#999999">string</text>
<text text-anchor="start" x="192" y="-378" font-family="Arial" font-size="10.00">filename </text>
<text text-anchor="start" x="232" y="-378" font-family="Arial Italic" font-size="10.00" fill="#999999">string ∗</text>
<text text-anchor="start" x="192" y="-365" font-family="Arial" font-size="10.00">key </text>
<text text-anchor="start" x="211" y="-365" font-family="Arial Italic" font-size="10.00" fill="#999999">string ∗</text>
<text text-anchor="start" x="192" y="-352" font-family="Arial" font-size="10.00">metadata </text>
<text text-anchor="start" x="236" y="-352" font-family="Arial Italic" font-size="10.00" fill="#999999">text</text>
<text text-anchor="start" x="192" y="-339" font-family="Arial" font-size="10.00">service_name </text>
<text text-anchor="start" x="256" y="-339" font-family="Arial Italic" font-size="10.00" fill="#999999">string ∗</text>
</g>
<!-- m_ActiveStorage::Blob&#45;&gt;m_ActiveStorage::Attachment -->
<g id="edge2" class="edge">
<title>m_ActiveStorage::Blob&#45;&gt;m_ActiveStorage::Attachment</title>
<path fill="none" stroke="black" d="M257,-329.43C257,-293.37 257,-249.1 257,-221.21"/>
</g>
<!-- m_ActiveStorage::Blob&#45;&gt;m_ActiveStorage::Blob -->
<g id="edge5" class="edge">
<title>m_ActiveStorage::Blob&#45;&gt;m_ActiveStorage::Blob</title>
<path fill="none" stroke="black" stroke-dasharray="1,5" d="M329.18,-417.51C345.79,-415.14 358,-405.97 358,-390 358,-374.03 345.79,-364.86 329.18,-362.49"/>
</g>
<!-- m_ActiveStorage::VariantRecord -->
<g id="node4" class="node">
<title>m_ActiveStorage::VariantRecord</title>
<path fill="none" stroke="black" d="M185.5,-520C185.5,-520 328.5,-520 328.5,-520 334.5,-520 340.5,-526 340.5,-532 340.5,-532 340.5,-551 340.5,-551 340.5,-557 334.5,-563 328.5,-563 328.5,-563 185.5,-563 185.5,-563 179.5,-563 173.5,-557 173.5,-551 173.5,-551 173.5,-532 173.5,-532 173.5,-526 179.5,-520 185.5,-520"/>
<text text-anchor="start" x="179" y="-550.2" font-family="Arial Bold" font-size="11.00">ActiveStorage::VariantRecord</text>
<polyline fill="none" stroke="black" points="173.5,-543 340.5,-543 "/>
<text text-anchor="start" x="192" y="-529.5" font-family="Arial" font-size="10.00">variation_digest </text>
<text text-anchor="start" x="264" y="-529.5" font-family="Arial Italic" font-size="10.00" fill="#999999">string ∗</text>
</g>
<!-- m_ActiveStorage::VariantRecord&#45;&gt;m_ActiveStorage::Attachment -->
<g id="edge3" class="edge">
<title>m_ActiveStorage::VariantRecord&#45;&gt;m_ActiveStorage::Attachment</title>
<path fill="none" stroke="black" d="M227.06,-519.68C206.72,-503.59 181.49,-479.31 170,-451 149.61,-400.76 154.69,-381.02 170,-329 182.2,-287.54 211.52,-246.8 232.76,-221.1"/>
</g>
<!-- m_ActiveStorage::VariantRecord&#45;&gt;m_ActiveStorage::Blob -->
<g id="edge1" class="edge">
<title>m_ActiveStorage::VariantRecord&#45;&gt;m_ActiveStorage::Blob</title>
<path fill="none" stroke="black" d="M257,-519.71C257,-504.06 257,-481.64 257,-459.89"/>
<polygon fill="black" stroke="black" points="260.15,-459.63 257,-450.63 253.85,-459.63 260.15,-459.63"/>
</g>
<!-- m_Axis -->
<g id="node5" class="node">
<title>m_Axis</title>
<path fill="none" stroke="black" d="M689,-520C689,-520 809,-520 809,-520 815,-520 821,-526 821,-532 821,-532 821,-551 821,-551 821,-557 815,-563 809,-563 809,-563 689,-563 689,-563 683,-563 677,-557 677,-551 677,-551 677,-532 677,-532 677,-526 683,-520 689,-520"/>
<text text-anchor="start" x="735" y="-550.2" font-family="Arial Bold" font-size="11.00">Axis</text>
<polyline fill="none" stroke="black" points="677,-543 821,-543 "/>
<text text-anchor="start" x="684" y="-529.5" font-family="Arial" font-size="10.00">name </text>
<text text-anchor="start" x="712" y="-529.5" font-family="Arial Italic" font-size="10.00" fill="#999999">string ∗ U</text>
</g>
<!-- m_Subject -->
<g id="node11" class="node">
<title>m_Subject</title>
<path fill="none" stroke="black" d="M776,-368.5C776,-368.5 896,-368.5 896,-368.5 902,-368.5 908,-374.5 908,-380.5 908,-380.5 908,-399.5 908,-399.5 908,-405.5 902,-411.5 896,-411.5 896,-411.5 776,-411.5 776,-411.5 770,-411.5 764,-405.5 764,-399.5 764,-399.5 764,-380.5 764,-380.5 764,-374.5 770,-368.5 776,-368.5"/>
<text text-anchor="start" x="814" y="-398.7" font-family="Arial Bold" font-size="11.00">Subject</text>
<polyline fill="none" stroke="black" points="764,-391.5 908,-391.5 "/>
<text text-anchor="start" x="771" y="-378" font-family="Arial" font-size="10.00">name </text>
<text text-anchor="start" x="799" y="-378" font-family="Arial Italic" font-size="10.00" fill="#999999">string ∗ U</text>
</g>
<!-- m_Axis&#45;&gt;m_Subject -->
<g id="edge15" class="edge">
<title>m_Axis&#45;&gt;m_Subject</title>
<path fill="none" stroke="black" d="M761.1,-519.71C776.29,-493.6 802.43,-448.69 819.46,-419.42"/>
<polygon fill="black" stroke="black" points="822.2,-420.97 824.01,-411.61 816.76,-417.81 822.2,-420.97"/>
</g>
<!-- m_Category -->
<g id="node6" class="node">
<title>m_Category</title>
<path fill="none" stroke="black" d="M862,-520C862,-520 982,-520 982,-520 988,-520 994,-526 994,-532 994,-532 994,-551 994,-551 994,-557 988,-563 982,-563 982,-563 862,-563 862,-563 856,-563 850,-557 850,-551 850,-551 850,-532 850,-532 850,-526 856,-520 862,-520"/>
<text text-anchor="start" x="895.5" y="-550.2" font-family="Arial Bold" font-size="11.00">Category</text>
<polyline fill="none" stroke="black" points="850,-543 994,-543 "/>
<text text-anchor="start" x="857" y="-529.5" font-family="Arial" font-size="10.00">name </text>
<text text-anchor="start" x="885" y="-529.5" font-family="Arial Italic" font-size="10.00" fill="#999999">string ∗ U</text>
</g>
<!-- m_Category&#45;&gt;m_Subject -->
<g id="edge14" class="edge">
<title>m_Category&#45;&gt;m_Subject</title>
<path fill="none" stroke="black" d="M910.04,-519.71C895.02,-493.6 869.19,-448.69 852.35,-419.42"/>
<polygon fill="black" stroke="black" points="855.07,-417.84 847.86,-411.61 849.61,-420.98 855.07,-417.84"/>
</g>
<!-- m_CkEditorUpload -->
<g id="node7" class="node">
<title>m_CkEditorUpload</title>
<path fill="none" stroke="black" d="M388,-372C388,-372 508,-372 508,-372 514,-372 520,-378 520,-384 520,-384 520,-396 520,-396 520,-402 514,-408 508,-408 508,-408 388,-408 388,-408 382,-408 376,-402 376,-396 376,-396 376,-384 376,-384 376,-378 382,-372 388,-372"/>
<text text-anchor="start" x="403.5" y="-387.2" font-family="Arial Bold" font-size="11.00">CkEditorUpload</text>
</g>
<!-- m_CkEditorUpload&#45;&gt;m_ActiveStorage::Attachment -->
<g id="edge4" class="edge">
<title>m_CkEditorUpload&#45;&gt;m_ActiveStorage::Attachment</title>
<path fill="none" stroke="black" d="M431.05,-371.7C397.73,-337.67 323.46,-261.85 283.56,-221.12"/>
</g>
<!-- m_Question -->
<g id="node8" class="node">
<title>m_Question</title>
<path fill="none" stroke="black" d="M698,-93.5C698,-93.5 818,-93.5 818,-93.5 824,-93.5 830,-99.5 830,-105.5 830,-105.5 830,-280.5 830,-280.5 830,-286.5 824,-292.5 818,-292.5 818,-292.5 698,-292.5 698,-292.5 692,-292.5 686,-286.5 686,-280.5 686,-280.5 686,-105.5 686,-105.5 686,-99.5 692,-93.5 698,-93.5"/>
<text text-anchor="start" x="732" y="-279.7" font-family="Arial Bold" font-size="11.00">Question</text>
<polyline fill="none" stroke="black" points="686,-272.5 830,-272.5 "/>
<text text-anchor="start" x="693" y="-259" font-family="Arial" font-size="10.00">alternatives </text>
<text text-anchor="start" x="747" y="-259" font-family="Arial Italic" font-size="10.00" fill="#999999">jsonb ∗</text>
<text text-anchor="start" x="693" y="-246" font-family="Arial" font-size="10.00">authorship </text>
<text text-anchor="start" x="742" y="-246" font-family="Arial Italic" font-size="10.00" fill="#999999">string</text>
<text text-anchor="start" x="693" y="-233" font-family="Arial" font-size="10.00">authorship_year </text>
<text text-anchor="start" x="766" y="-233" font-family="Arial Italic" font-size="10.00" fill="#999999">string</text>
<text text-anchor="start" x="693" y="-220" font-family="Arial" font-size="10.00">bloom_taxonomy </text>
<text text-anchor="start" x="771" y="-220" font-family="Arial Italic" font-size="10.00" fill="#999999">string</text>
<text text-anchor="start" x="693" y="-207" font-family="Arial" font-size="10.00">body </text>
<text text-anchor="start" x="718" y="-207" font-family="Arial Italic" font-size="10.00" fill="#999999">text</text>
<text text-anchor="start" x="693" y="-194" font-family="Arial" font-size="10.00">check_type </text>
<text text-anchor="start" x="747" y="-194" font-family="Arial Italic" font-size="10.00" fill="#999999">string</text>
<text text-anchor="start" x="693" y="-181" font-family="Arial" font-size="10.00">difficulty </text>
<text text-anchor="start" x="733" y="-181" font-family="Arial Italic" font-size="10.00" fill="#999999">string</text>
<text text-anchor="start" x="693" y="-168" font-family="Arial" font-size="10.00">explanation </text>
<text text-anchor="start" x="746" y="-168" font-family="Arial Italic" font-size="10.00" fill="#999999">text</text>
<text text-anchor="start" x="693" y="-155" font-family="Arial" font-size="10.00">instruction </text>
<text text-anchor="start" x="742" y="-155" font-family="Arial Italic" font-size="10.00" fill="#999999">text</text>
<text text-anchor="start" x="693" y="-142" font-family="Arial" font-size="10.00">intention </text>
<text text-anchor="start" x="733" y="-142" font-family="Arial Italic" font-size="10.00" fill="#999999">text</text>
<text text-anchor="start" x="693" y="-129" font-family="Arial" font-size="10.00">references </text>
<text text-anchor="start" x="742" y="-129" font-family="Arial Italic" font-size="10.00" fill="#999999">text</text>
<text text-anchor="start" x="693" y="-116" font-family="Arial" font-size="10.00">status </text>
<text text-anchor="start" x="724" y="-116" font-family="Arial Italic" font-size="10.00" fill="#999999">string ∗</text>
<text text-anchor="start" x="693" y="-103" font-family="Arial" font-size="10.00">support </text>
<text text-anchor="start" x="729" y="-103" font-family="Arial Italic" font-size="10.00" fill="#999999">text</text>
</g>
<!-- m_ReviewMessage -->
<g id="node9" class="node">
<title>m_ReviewMessage</title>
<path fill="none" stroke="black" d="M698,-0.5C698,-0.5 818,-0.5 818,-0.5 824,-0.5 830,-6.5 830,-12.5 830,-12.5 830,-44.5 830,-44.5 830,-50.5 824,-56.5 818,-56.5 818,-56.5 698,-56.5 698,-56.5 692,-56.5 686,-50.5 686,-44.5 686,-44.5 686,-12.5 686,-12.5 686,-6.5 692,-0.5 698,-0.5"/>
<text text-anchor="start" x="714" y="-43.7" font-family="Arial Bold" font-size="11.00">ReviewMessage</text>
<polyline fill="none" stroke="black" points="686,-36.5 830,-36.5 "/>
<text text-anchor="start" x="693" y="-23.5" font-family="Arial" font-size="10.00">content </text>
<text text-anchor="start" x="729" y="-23.5" font-family="Arial Italic" font-size="10.00" fill="#999999">string ∗</text>
<text text-anchor="start" x="693" y="-10.5" font-family="Arial" font-size="10.00">feedback_type </text>
<text text-anchor="start" x="760" y="-10.5" font-family="Arial Italic" font-size="10.00" fill="#999999">string</text>
</g>
<!-- m_Question&#45;&gt;m_ReviewMessage -->
<g id="edge9" class="edge">
<title>m_Question&#45;&gt;m_ReviewMessage</title>
<path fill="none" stroke="black" d="M758,-93.26C758,-83.5 758,-74.1 758,-65.65"/>
<polygon fill="black" stroke="black" points="761.15,-65.55 758,-56.55 754.85,-65.55 761.15,-65.55"/>
</g>
<!-- m_ReviewRequest -->
<g id="node10" class="node">
<title>m_ReviewRequest</title>
<path fill="none" stroke="black" d="M525,-7C525,-7 645,-7 645,-7 651,-7 657,-13 657,-19 657,-19 657,-38 657,-38 657,-44 651,-50 645,-50 645,-50 525,-50 525,-50 519,-50 513,-44 513,-38 513,-38 513,-19 513,-19 513,-13 519,-7 525,-7"/>
<text text-anchor="start" x="542" y="-37.2" font-family="Arial Bold" font-size="11.00">ReviewRequest</text>
<polyline fill="none" stroke="black" points="513,-30 657,-30 "/>
<text text-anchor="start" x="520" y="-16.5" font-family="Arial" font-size="10.00">answered </text>
<text text-anchor="start" x="566" y="-16.5" font-family="Arial Italic" font-size="10.00" fill="#999999">string</text>
</g>
<!-- m_Question&#45;&gt;m_ReviewRequest -->
<g id="edge7" class="edge">
<title>m_Question&#45;&gt;m_ReviewRequest</title>
<path fill="none" stroke="black" d="M685.85,-113.99C678.6,-106.77 671.24,-99.66 664,-93 650,-80.11 633.73,-66.78 619.61,-55.68"/>
<polygon fill="black" stroke="black" points="621.47,-53.14 612.44,-50.09 617.6,-58.11 621.47,-53.14"/>
</g>
<!-- m_Subject&#45;&gt;m_Question -->
<g id="edge12" class="edge">
<title>m_Subject&#45;&gt;m_Question</title>
<path fill="none" stroke="black" d="M827.65,-368.13C821.01,-351.54 811.18,-326.94 800.97,-301.43"/>
<polygon fill="black" stroke="black" points="803.77,-299.94 797.5,-292.75 797.92,-302.28 803.77,-299.94"/>
</g>
<!-- m_User -->
<g id="node12" class="node">
<title>m_User</title>
<path fill="none" stroke="black" d="M561.5,-336C561.5,-336 722.5,-336 722.5,-336 728.5,-336 734.5,-342 734.5,-348 734.5,-348 734.5,-432 734.5,-432 734.5,-438 728.5,-444 722.5,-444 722.5,-444 561.5,-444 561.5,-444 555.5,-444 549.5,-438 549.5,-432 549.5,-432 549.5,-348 549.5,-348 549.5,-342 555.5,-336 561.5,-336"/>
<text text-anchor="start" x="627.5" y="-431.2" font-family="Arial Bold" font-size="11.00">User</text>
<polyline fill="none" stroke="black" points="549.5,-424 734.5,-424 "/>
<text text-anchor="start" x="557" y="-411" font-family="Arial" font-size="10.00">email </text>
<text text-anchor="start" x="584" y="-411" font-family="Arial Italic" font-size="10.00" fill="#999999">string ∗ U</text>
<text text-anchor="start" x="557" y="-398" font-family="Arial" font-size="10.00">encrypted_password </text>
<text text-anchor="start" x="651" y="-398" font-family="Arial Italic" font-size="10.00" fill="#999999">string ∗</text>
<text text-anchor="start" x="557" y="-385" font-family="Arial" font-size="10.00">name </text>
<text text-anchor="start" x="585" y="-385" font-family="Arial Italic" font-size="10.00" fill="#999999">string ∗</text>
<text text-anchor="start" x="557" y="-372" font-family="Arial" font-size="10.00">remember_created_at </text>
<text text-anchor="start" x="655" y="-372" font-family="Arial Italic" font-size="10.00" fill="#999999">datetime (6,0)</text>
<text text-anchor="start" x="557" y="-359" font-family="Arial" font-size="10.00">reset_password_sent_at </text>
<text text-anchor="start" x="667" y="-359" font-family="Arial Italic" font-size="10.00" fill="#999999">datetime (6,0)</text>
<text text-anchor="start" x="557" y="-346" font-family="Arial" font-size="10.00">reset_password_token </text>
<text text-anchor="start" x="659" y="-346" font-family="Arial Italic" font-size="10.00" fill="#999999">string</text>
</g>
<!-- m_User&#45;&gt;m_Question -->
<g id="edge11" class="edge">
<title>m_User&#45;&gt;m_Question</title>
<path fill="none" stroke="black" d="M673.54,-335.97C680.09,-324.96 687.22,-312.99 694.45,-300.82"/>
<polygon fill="black" stroke="black" points="697.33,-302.15 699.22,-292.81 691.91,-298.93 697.33,-302.15"/>
</g>
<!-- m_User&#45;&gt;m_ReviewMessage -->
<g id="edge10" class="edge">
<title>m_User&#45;&gt;m_ReviewMessage</title>
<path fill="none" stroke="black" d="M642,-192C646.07,-146.2 645.49,-130.56 672,-93 680.16,-81.43 691.1,-71.12 702.43,-62.34"/>
<polygon fill="black" stroke="black" points="704.55,-64.69 709.91,-56.8 700.8,-59.63 704.55,-64.69"/>
</g>
<!-- m_User&#45;&gt;m_ReviewRequest -->
<g id="edge8" class="edge">
<title>m_User&#45;&gt;m_ReviewRequest</title>
<path fill="none" stroke="black" d="M639.47,-335.92C638.21,-296.64 637.74,-241.88 642,-194"/>
<path fill="none" stroke="black" d="M642,-192C646.37,-142.93 621.5,-89.71 603.22,-58.01"/>
<polygon fill="black" stroke="black" points="605.8,-56.18 598.5,-50.04 600.38,-59.39 605.8,-56.18"/>
</g>
</g>
</svg>
