<?xml version="1.0" encoding="UTF-8" standalone="no"?>
<!DOCTYPE svg PUBLIC "-//W3C//DTD SVG 1.1//EN"
 "http://www.w3.org/Graphics/SVG/1.1/DTD/svg11.dtd">
<!-- Generated by graphviz version 4.0.0 (0)
 -->
<!-- Title: ProgressTest Pages: 1 -->
<svg width="965pt" height="691pt"
 viewBox="0.00 0.00 965.10 690.60" xmlns="http://www.w3.org/2000/svg" xmlns:xlink="http://www.w3.org/1999/xlink">
<g id="graph0" class="graph" transform="scale(1 1) rotate(0) translate(28.8 661.8)">
<title>ProgressTest</title>
<polygon fill="white" stroke="transparent" points="-28.8,28.8 -28.8,-661.8 936.3,-661.8 936.3,28.8 -28.8,28.8"/>
<text text-anchor="middle" x="453.75" y="-618.6" font-family="Arial Bold" font-size="13.00">Progress Test &#45; Models</text>
<!-- m_ActiveAdmin::Comment -->
<g id="node1" class="node">
<title>m_ActiveAdmin::Comment</title>
<path fill="none" stroke="black" d="M12,-487.5C12,-487.5 132,-487.5 132,-487.5 138,-487.5 144,-493.5 144,-499.5 144,-499.5 144,-583.5 144,-583.5 144,-589.5 138,-595.5 132,-595.5 132,-595.5 12,-595.5 12,-595.5 6,-595.5 0,-589.5 0,-583.5 0,-583.5 0,-499.5 0,-499.5 0,-493.5 6,-487.5 12,-487.5"/>
<text text-anchor="start" x="6.5" y="-582.7" font-family="Arial Bold" font-size="11.00">ActiveAdmin::Comment</text>
<polyline fill="none" stroke="black" points="0,-575.5 144,-575.5 "/>
<text text-anchor="start" x="7" y="-562.5" font-family="Arial" font-size="10.00">author_id </text>
<text text-anchor="start" x="50" y="-562.5" font-family="Arial Italic" font-size="10.00" fill="#999999">integer (8)</text>
<text text-anchor="start" x="7" y="-549.5" font-family="Arial" font-size="10.00">author_type </text>
<text text-anchor="start" x="62" y="-549.5" font-family="Arial Italic" font-size="10.00" fill="#999999">string</text>
<text text-anchor="start" x="7" y="-536.5" font-family="Arial" font-size="10.00">body </text>
<text text-anchor="start" x="32" y="-536.5" font-family="Arial Italic" font-size="10.00" fill="#999999">text ∗</text>
<text text-anchor="start" x="7" y="-523.5" font-family="Arial" font-size="10.00">namespace </text>
<text text-anchor="start" x="61" y="-523.5" font-family="Arial Italic" font-size="10.00" fill="#999999">string ∗</text>
<text text-anchor="start" x="7" y="-510.5" font-family="Arial" font-size="10.00">resource_id </text>
<text text-anchor="start" x="61" y="-510.5" font-family="Arial Italic" font-size="10.00" fill="#999999">integer (8)</text>
<text text-anchor="start" x="7" y="-497.5" font-family="Arial" font-size="10.00">resource_type </text>
<text text-anchor="start" x="72" y="-497.5" font-family="Arial Italic" font-size="10.00" fill="#999999">string</text>
</g>
<!-- m_ActiveStorage::Attachment -->
<g id="node2" class="node">
<title>m_ActiveStorage::Attachment</title>
<path fill="none" stroke="black" d="M192.5,-165C192.5,-165 321.5,-165 321.5,-165 327.5,-165 333.5,-171 333.5,-177 333.5,-177 333.5,-209 333.5,-209 333.5,-215 327.5,-221 321.5,-221 321.5,-221 192.5,-221 192.5,-221 186.5,-221 180.5,-215 180.5,-209 180.5,-209 180.5,-177 180.5,-177 180.5,-171 186.5,-165 192.5,-165"/>
<text text-anchor="start" x="186" y="-208.2" font-family="Arial Bold" font-size="11.00">ActiveStorage::Attachment</text>
<polyline fill="none" stroke="black" points="180.5,-201 333.5,-201 "/>
<text text-anchor="start" x="192" y="-188" font-family="Arial" font-size="10.00">name </text>
<text text-anchor="start" x="220" y="-188" font-family="Arial Italic" font-size="10.00" fill="#999999">string ∗</text>
<text text-anchor="start" x="192" y="-175" font-family="Arial" font-size="10.00">record_type </text>
<text text-anchor="start" x="247" y="-175" font-family="Arial Italic" font-size="10.00" fill="#999999">string ∗</text>
</g>
<!-- m_ActiveStorage::Blob -->
<g id="node3" class="node">
<title>m_ActiveStorage::Blob</title>
<path fill="none" stroke="black" d="M197,-329.5C197,-329.5 317,-329.5 317,-329.5 323,-329.5 329,-335.5 329,-341.5 329,-341.5 329,-438.5 329,-438.5 329,-444.5 323,-450.5 317,-450.5 317,-450.5 197,-450.5 197,-450.5 191,-450.5 185,-444.5 185,-438.5 185,-438.5 185,-341.5 185,-341.5 185,-335.5 191,-329.5 197,-329.5"/>
<text text-anchor="start" x="201.5" y="-437.7" font-family="Arial Bold" font-size="11.00">ActiveStorage::Blob</text>
<polyline fill="none" stroke="black" points="185,-430.5 329,-430.5 "/>
<text text-anchor="start" x="192" y="-417" font-family="Arial" font-size="10.00">byte_size </text>
<text text-anchor="start" x="238" y="-417" font-family="Arial Italic" font-size="10.00" fill="#999999">integer (8) ∗</text>
<text text-anchor="start" x="192" y="-404" font-family="Arial" font-size="10.00">checksum </text>
<text text-anchor="start" x="241" y="-404" font-family="Arial Italic" font-size="10.00" fill="#999999">string ∗</text>
<text text-anchor="start" x="192" y="-391" font-family="Arial" font-size="10.00">content_type </text>
<text text-anchor="start" x="252" y="-391" font-family="Arial Italic" font-size="10.00" fill="#999999">string</text>
<text text-anchor="start" x="192" y="-378" font-family="Arial" font-size="10.00">filename </text>
<text text-anchor="start" x="232" y="-378" font-family="Arial Italic" font-size="10.00" fill="#999999">string ∗</text>
<text text-anchor="start" x="192" y="-365" font-family="Arial" font-size="10.00">key </text>
<text text-anchor="start" x="211" y="-365" font-family="Arial Italic" font-size="10.00" fill="#999999">string ∗</text>
<text text-anchor="start" x="192" y="-352" font-family="Arial" font-size="10.00">metadata </text>
<text text-anchor="start" x="236" y="-352" font-family="Arial Italic" font-size="10.00" fill="#999999">text</text>
<text text-anchor="start" x="192" y="-339" font-family="Arial" font-size="10.00">service_name </text>
<text text-anchor="start" x="256" y="-339" font-family="Arial Italic" font-size="10.00" fill="#999999">string ∗</text>
</g>
<!-- m_ActiveStorage::Blob&#45;&gt;m_ActiveStorage::Attachment -->
<g id="edge2" class="edge">
<title>m_ActiveStorage::Blob&#45;&gt;m_ActiveStorage::Attachment</title>
<path fill="none" stroke="black" d="M257,-329.43C257,-293.37 257,-249.1 257,-221.21"/>
</g>
<!-- m_ActiveStorage::Blob&#45;&gt;m_ActiveStorage::Blob -->
<g id="edge5" class="edge">
<title>m_ActiveStorage::Blob&#45;&gt;m_ActiveStorage::Blob</title>
<path fill="none" stroke="black" stroke-dasharray="1,5" d="M329.18,-417.51C345.79,-415.14 358,-405.97 358,-390 358,-374.03 345.79,-364.86 329.18,-362.49"/>
</g>
<!-- m_ActiveStorage::VariantRecord -->
<g id="node4" class="node">
<title>m_ActiveStorage::VariantRecord</title>
<path fill="none" stroke="black" d="M185.5,-520C185.5,-520 328.5,-520 328.5,-520 334.5,-520 340.5,-526 340.5,-532 340.5,-532 340.5,-551 340.5,-551 340.5,-557 334.5,-563 328.5,-563 328.5,-563 185.5,-563 185.5,-563 179.5,-563 173.5,-557 173.5,-551 173.5,-551 173.5,-532 173.5,-532 173.5,-526 179.5,-520 185.5,-520"/>
<text text-anchor="start" x="179" y="-550.2" font-family="Arial Bold" font-size="11.00">ActiveStorage::VariantRecord</text>
<polyline fill="none" stroke="black" points="173.5,-543 340.5,-543 "/>
<text text-anchor="start" x="192" y="-529.5" font-family="Arial" font-size="10.00">variation_digest </text>
<text text-anchor="start" x="264" y="-529.5" font-family="Arial Italic" font-size="10.00" fill="#999999">string ∗</text>
</g>
<!-- m_ActiveStorage::VariantRecord&#45;&gt;m_ActiveStorage::Attachment -->
<g id="edge3" class="edge">
<title>m_ActiveStorage::VariantRecord&#45;&gt;m_ActiveStorage::Attachment</title>
<path fill="none" stroke="black" d="M227.06,-519.68C206.72,-503.59 181.49,-479.31 170,-451 149.61,-400.76 154.69,-381.02 170,-329 182.2,-287.54 211.52,-246.8 232.76,-221.1"/>
</g>
<!-- m_ActiveStorage::VariantRecord&#45;&gt;m_ActiveStorage::Blob -->
<g id="edge1" class="edge">
<title>m_ActiveStorage::VariantRecord&#45;&gt;m_ActiveStorage::Blob</title>
<path fill="none" stroke="black" d="M257,-519.71C257,-504.06 257,-481.64 257,-459.89"/>
<polygon fill="black" stroke="black" points="260.15,-459.63 257,-450.63 253.85,-459.63 260.15,-459.63"/>
</g>
<!-- m_Axis -->
<g id="node5" class="node">
<title>m_Axis</title>
<path fill="none" stroke="black" d="M572,-520C572,-520 692,-520 692,-520 698,-520 704,-526 704,-532 704,-532 704,-551 704,-551 704,-557 698,-563 692,-563 692,-563 572,-563 572,-563 566,-563 560,-557 560,-551 560,-551 560,-532 560,-532 560,-526 566,-520 572,-520"/>
<text text-anchor="start" x="618" y="-550.2" font-family="Arial Bold" font-size="11.00">Axis</text>
<polyline fill="none" stroke="black" points="560,-543 704,-543 "/>
<text text-anchor="start" x="567" y="-529.5" font-family="Arial" font-size="10.00">name </text>
<text text-anchor="start" x="595" y="-529.5" font-family="Arial Italic" font-size="10.00" fill="#999999">string ∗ U</text>
</g>
<!-- m_Subject -->
<g id="node12" class="node">
<title>m_Subject</title>
<path fill="none" stroke="black" d="M561,-368.5C561,-368.5 681,-368.5 681,-368.5 687,-368.5 693,-374.5 693,-380.5 693,-380.5 693,-399.5 693,-399.5 693,-405.5 687,-411.5 681,-411.5 681,-411.5 561,-411.5 561,-411.5 555,-411.5 549,-405.5 549,-399.5 549,-399.5 549,-380.5 549,-380.5 549,-374.5 555,-368.5 561,-368.5"/>
<text text-anchor="start" x="599" y="-398.7" font-family="Arial Bold" font-size="11.00">Subject</text>
<polyline fill="none" stroke="black" points="549,-391.5 693,-391.5 "/>
<text text-anchor="start" x="556" y="-378" font-family="Arial" font-size="10.00">name </text>
<text text-anchor="start" x="584" y="-378" font-family="Arial Italic" font-size="10.00" fill="#999999">string ∗ U</text>
</g>
<!-- m_Axis&#45;&gt;m_Subject -->
<g id="edge15" class="edge">
<title>m_Axis&#45;&gt;m_Subject</title>
<path fill="none" stroke="black" d="M630.47,-519.71C628.58,-494.05 625.36,-450.22 623.2,-420.94"/>
<polygon fill="black" stroke="black" points="626.32,-420.36 622.52,-411.61 620.04,-420.82 626.32,-420.36"/>
</g>
<!-- m_Category -->
<g id="node6" class="node">
<title>m_Category</title>
<path fill="none" stroke="black" d="M399,-520C399,-520 519,-520 519,-520 525,-520 531,-526 531,-532 531,-532 531,-551 531,-551 531,-557 525,-563 519,-563 519,-563 399,-563 399,-563 393,-563 387,-557 387,-551 387,-551 387,-532 387,-532 387,-526 393,-520 399,-520"/>
<text text-anchor="start" x="432.5" y="-550.2" font-family="Arial Bold" font-size="11.00">Category</text>
<polyline fill="none" stroke="black" points="387,-543 531,-543 "/>
<text text-anchor="start" x="394" y="-529.5" font-family="Arial" font-size="10.00">name </text>
<text text-anchor="start" x="422" y="-529.5" font-family="Arial Italic" font-size="10.00" fill="#999999">string ∗ U</text>
</g>
<!-- m_Category&#45;&gt;m_Subject -->
<g id="edge14" class="edge">
<title>m_Category&#45;&gt;m_Subject</title>
<path fill="none" stroke="black" d="M481.53,-519.71C510.3,-493.16 560.15,-447.15 591.81,-417.94"/>
<polygon fill="black" stroke="black" points="594.19,-420.03 598.67,-411.61 589.92,-415.4 594.19,-420.03"/>
</g>
<!-- m_CkEditorUpload -->
<g id="node7" class="node">
<title>m_CkEditorUpload</title>
<path fill="none" stroke="black" d="M388,-372C388,-372 508,-372 508,-372 514,-372 520,-378 520,-384 520,-384 520,-396 520,-396 520,-402 514,-408 508,-408 508,-408 388,-408 388,-408 382,-408 376,-402 376,-396 376,-396 376,-384 376,-384 376,-378 382,-372 388,-372"/>
<text text-anchor="start" x="403.5" y="-387.2" font-family="Arial Bold" font-size="11.00">CkEditorUpload</text>
</g>
<!-- m_CkEditorUpload&#45;&gt;m_ActiveStorage::Attachment -->
<g id="edge4" class="edge">
<title>m_CkEditorUpload&#45;&gt;m_ActiveStorage::Attachment</title>
<path fill="none" stroke="black" d="M431.05,-371.7C397.73,-337.67 323.46,-261.85 283.56,-221.12"/>
</g>
<!-- m_Question -->
<g id="node8" class="node">
<title>m_Question</title>
<path fill="none" stroke="black" d="M610,-93.5C610,-93.5 730,-93.5 730,-93.5 736,-93.5 742,-99.5 742,-105.5 742,-105.5 742,-280.5 742,-280.5 742,-286.5 736,-292.5 730,-292.5 730,-292.5 610,-292.5 610,-292.5 604,-292.5 598,-286.5 598,-280.5 598,-280.5 598,-105.5 598,-105.5 598,-99.5 604,-93.5 610,-93.5"/>
<text text-anchor="start" x="644" y="-279.7" font-family="Arial Bold" font-size="11.00">Question</text>
<polyline fill="none" stroke="black" points="598,-272.5 742,-272.5 "/>
<text text-anchor="start" x="605" y="-259" font-family="Arial" font-size="10.00">alternatives </text>
<text text-anchor="start" x="659" y="-259" font-family="Arial Italic" font-size="10.00" fill="#999999">jsonb ∗</text>
<text text-anchor="start" x="605" y="-246" font-family="Arial" font-size="10.00">authorship </text>
<text text-anchor="start" x="654" y="-246" font-family="Arial Italic" font-size="10.00" fill="#999999">string</text>
<text text-anchor="start" x="605" y="-233" font-family="Arial" font-size="10.00">authorship_year </text>
<text text-anchor="start" x="678" y="-233" font-family="Arial Italic" font-size="10.00" fill="#999999">string</text>
<text text-anchor="start" x="605" y="-220" font-family="Arial" font-size="10.00">bloom_taxonomy </text>
<text text-anchor="start" x="683" y="-220" font-family="Arial Italic" font-size="10.00" fill="#999999">string</text>
<text text-anchor="start" x="605" y="-207" font-family="Arial" font-size="10.00">body </text>
<text text-anchor="start" x="630" y="-207" font-family="Arial Italic" font-size="10.00" fill="#999999">text</text>
<text text-anchor="start" x="605" y="-194" font-family="Arial" font-size="10.00">check_type </text>
<text text-anchor="start" x="659" y="-194" font-family="Arial Italic" font-size="10.00" fill="#999999">string</text>
<text text-anchor="start" x="605" y="-181" font-family="Arial" font-size="10.00">difficulty </text>
<text text-anchor="start" x="645" y="-181" font-family="Arial Italic" font-size="10.00" fill="#999999">string</text>
<text text-anchor="start" x="605" y="-168" font-family="Arial" font-size="10.00">explanation </text>
<text text-anchor="start" x="658" y="-168" font-family="Arial Italic" font-size="10.00" fill="#999999">text</text>
<text text-anchor="start" x="605" y="-155" font-family="Arial" font-size="10.00">instruction </text>
<text text-anchor="start" x="654" y="-155" font-family="Arial Italic" font-size="10.00" fill="#999999">text</text>
<text text-anchor="start" x="605" y="-142" font-family="Arial" font-size="10.00">intention </text>
<text text-anchor="start" x="645" y="-142" font-family="Arial Italic" font-size="10.00" fill="#999999">text</text>
<text text-anchor="start" x="605" y="-129" font-family="Arial" font-size="10.00">references </text>
<text text-anchor="start" x="654" y="-129" font-family="Arial Italic" font-size="10.00" fill="#999999">text</text>
<text text-anchor="start" x="605" y="-116" font-family="Arial" font-size="10.00">status </text>
<text text-anchor="start" x="636" y="-116" font-family="Arial Italic" font-size="10.00" fill="#999999">string ∗</text>
<text text-anchor="start" x="605" y="-103" font-family="Arial" font-size="10.00">support </text>
<text text-anchor="start" x="641" y="-103" font-family="Arial Italic" font-size="10.00" fill="#999999">text</text>
</g>
<!-- m_ReviewMessage -->
<g id="node9" class="node">
<title>m_ReviewMessage</title>
<path fill="none" stroke="black" d="M755,-0.5C755,-0.5 875,-0.5 875,-0.5 881,-0.5 887,-6.5 887,-12.5 887,-12.5 887,-44.5 887,-44.5 887,-50.5 881,-56.5 875,-56.5 875,-56.5 755,-56.5 755,-56.5 749,-56.5 743,-50.5 743,-44.5 743,-44.5 743,-12.5 743,-12.5 743,-6.5 749,-0.5 755,-0.5"/>
<text text-anchor="start" x="771" y="-43.7" font-family="Arial Bold" font-size="11.00">ReviewMessage</text>
<polyline fill="none" stroke="black" points="743,-36.5 887,-36.5 "/>
<text text-anchor="start" x="750" y="-23.5" font-family="Arial" font-size="10.00">content </text>
<text text-anchor="start" x="786" y="-23.5" font-family="Arial Italic" font-size="10.00" fill="#999999">string ∗</text>
<text text-anchor="start" x="750" y="-10.5" font-family="Arial" font-size="10.00">feedback_type </text>
<text text-anchor="start" x="817" y="-10.5" font-family="Arial Italic" font-size="10.00" fill="#999999">string</text>
</g>
<!-- m_Question&#45;&gt;m_ReviewMessage -->
<g id="edge9" class="edge">
<title>m_Question&#45;&gt;m_ReviewMessage</title>
<path fill="none" stroke="black" d="M742.08,-111.23C757.09,-94.4 772.12,-77.55 784.61,-63.56"/>
<polygon fill="black" stroke="black" points="787.25,-65.33 790.89,-56.52 782.55,-61.14 787.25,-65.33"/>
</g>
<!-- m_ReviewRequest -->
<g id="node10" class="node">
<title>m_ReviewRequest</title>
<path fill="none" stroke="black" d="M582,-7C582,-7 702,-7 702,-7 708,-7 714,-13 714,-19 714,-19 714,-38 714,-38 714,-44 708,-50 702,-50 702,-50 582,-50 582,-50 576,-50 570,-44 570,-38 570,-38 570,-19 570,-19 570,-13 576,-7 582,-7"/>
<text text-anchor="start" x="599" y="-37.2" font-family="Arial Bold" font-size="11.00">ReviewRequest</text>
<polyline fill="none" stroke="black" points="570,-30 714,-30 "/>
<text text-anchor="start" x="577" y="-16.5" font-family="Arial" font-size="10.00">answered </text>
<text text-anchor="start" x="623" y="-16.5" font-family="Arial Italic" font-size="10.00" fill="#999999">string</text>
</g>
<!-- m_Question&#45;&gt;m_ReviewRequest -->
<g id="edge7" class="edge">
<title>m_Question&#45;&gt;m_ReviewRequest</title>
<path fill="none" stroke="black" d="M652.99,-93.26C650.85,-80.87 648.81,-69.05 647.09,-59.03"/>
<polygon fill="black" stroke="black" points="650.17,-58.34 645.53,-50.01 643.96,-59.41 650.17,-58.34"/>
</g>
<!-- m_Role -->
<g id="node11" class="node">
<title>m_Role</title>
<path fill="none" stroke="black" d="M755,-520C755,-520 875,-520 875,-520 881,-520 887,-526 887,-532 887,-532 887,-551 887,-551 887,-557 881,-563 875,-563 875,-563 755,-563 755,-563 749,-563 743,-557 743,-551 743,-551 743,-532 743,-532 743,-526 749,-520 755,-520"/>
<text text-anchor="start" x="800.5" y="-550.2" font-family="Arial Bold" font-size="11.00">Role</text>
<polyline fill="none" stroke="black" points="743,-543 887,-543 "/>
<text text-anchor="start" x="750" y="-529.5" font-family="Arial" font-size="10.00">name </text>
<text text-anchor="start" x="778" y="-529.5" font-family="Arial Italic" font-size="10.00" fill="#999999">string ∗ U</text>
</g>
<!-- m_User -->
<g id="node13" class="node">
<title>m_User</title>
<path fill="none" stroke="black" d="M734.5,-336C734.5,-336 895.5,-336 895.5,-336 901.5,-336 907.5,-342 907.5,-348 907.5,-348 907.5,-432 907.5,-432 907.5,-438 901.5,-444 895.5,-444 895.5,-444 734.5,-444 734.5,-444 728.5,-444 722.5,-438 722.5,-432 722.5,-432 722.5,-348 722.5,-348 722.5,-342 728.5,-336 734.5,-336"/>
<text text-anchor="start" x="800.5" y="-431.2" font-family="Arial Bold" font-size="11.00">User</text>
<polyline fill="none" stroke="black" points="722.5,-424 907.5,-424 "/>
<text text-anchor="start" x="730" y="-411" font-family="Arial" font-size="10.00">email </text>
<text text-anchor="start" x="757" y="-411" font-family="Arial Italic" font-size="10.00" fill="#999999">string ∗ U</text>
<text text-anchor="start" x="730" y="-398" font-family="Arial" font-size="10.00">encrypted_password </text>
<text text-anchor="start" x="824" y="-398" font-family="Arial Italic" font-size="10.00" fill="#999999">string ∗</text>
<text text-anchor="start" x="730" y="-385" font-family="Arial" font-size="10.00">name </text>
<text text-anchor="start" x="758" y="-385" font-family="Arial Italic" font-size="10.00" fill="#999999">string ∗</text>
<text text-anchor="start" x="730" y="-372" font-family="Arial" font-size="10.00">remember_created_at </text>
<text text-anchor="start" x="828" y="-372" font-family="Arial Italic" font-size="10.00" fill="#999999">datetime (6,0)</text>
<text text-anchor="start" x="730" y="-359" font-family="Arial" font-size="10.00">reset_password_sent_at </text>
<text text-anchor="start" x="840" y="-359" font-family="Arial Italic" font-size="10.00" fill="#999999">datetime (6,0)</text>
<text text-anchor="start" x="730" y="-346" font-family="Arial" font-size="10.00">reset_password_token </text>
<text text-anchor="start" x="832" y="-346" font-family="Arial Italic" font-size="10.00" fill="#999999">string</text>
</g>
<!-- m_Role&#45;&gt;m_User -->
<g id="edge16" class="edge">
<title>m_Role&#45;&gt;m_User</title>
<path fill="none" stroke="black" d="M815,-510.65C815,-494.16 815,-473.04 815,-453.14"/>
<polygon fill="black" stroke="black" points="811.85,-510.71 815,-519.71 818.15,-510.71 811.85,-510.71"/>
<polygon fill="black" stroke="black" points="818.15,-453.11 815,-444.11 811.85,-453.11 818.15,-453.11"/>
</g>
<!-- m_Subject&#45;&gt;m_Question -->
<g id="edge12" class="edge">
<title>m_Subject&#45;&gt;m_Question</title>
<path fill="none" stroke="black" d="M626.24,-368.13C630.4,-351.61 636.54,-327.15 642.92,-301.76"/>
<polygon fill="black" stroke="black" points="646.05,-302.25 645.19,-292.75 639.94,-300.71 646.05,-302.25"/>
</g>
<!-- m_User&#45;&gt;m_Question -->
<g id="edge11" class="edge">
<title>m_User&#45;&gt;m_Question</title>
<path fill="none" stroke="black" d="M775.57,-335.97C766.8,-324.17 757.2,-311.27 747.48,-298.2"/>
<polygon fill="black" stroke="black" points="749.97,-296.27 742.08,-290.93 744.92,-300.03 749.97,-296.27"/>
</g>
<!-- m_User&#45;&gt;m_ReviewMessage -->
<g id="edge10" class="edge">
<title>m_User&#45;&gt;m_ReviewMessage</title>
<path fill="none" stroke="black" d="M815,-192C804.57,-149.75 806.71,-99.41 810.06,-66.07"/>
<polygon fill="black" stroke="black" points="813.23,-66.01 811.07,-56.72 806.97,-65.33 813.23,-66.01"/>
</g>
<!-- m_User&#45;&gt;m_ReviewRequest -->
<g id="edge8" class="edge">
<title>m_User&#45;&gt;m_ReviewRequest</title>
<path fill="none" stroke="black" d="M821.82,-335.62C825.25,-295.95 826.56,-240.84 815,-194"/>
<path fill="none" stroke="black" d="M815,-192C802.78,-142.49 793.51,-128.6 757,-93 740.92,-77.33 720.21,-64.32 700.8,-54.24"/>
<polygon fill="black" stroke="black" points="702.03,-51.34 692.58,-50.11 699.2,-56.97 702.03,-51.34"/>
</g>
</g>
</svg>
