<?xml version="1.0" encoding="UTF-8" standalone="no"?>
<!DOCTYPE svg PUBLIC "-//W3C//DTD SVG 1.1//EN"
 "http://www.w3.org/Graphics/SVG/1.1/DTD/svg11.dtd">
<!-- Generated by graphviz version 4.0.0 (0)
 -->
<!-- Title: ProgressTest Pages: 1 -->
<svg width="1052pt" height="717pt"
 viewBox="0.00 0.00 1051.60 716.60" xmlns="http://www.w3.org/2000/svg" xmlns:xlink="http://www.w3.org/1999/xlink">
<g id="graph0" class="graph" transform="scale(1 1) rotate(0) translate(28.8 687.8)">
<title>ProgressTest</title>
<polygon fill="white" stroke="transparent" points="-28.8,28.8 -28.8,-687.8 1022.8,-687.8 1022.8,28.8 -28.8,28.8"/>
<text text-anchor="middle" x="497" y="-644.6" font-family="Arial Bold" font-size="13.00">Progress Test &#45; Models</text>
<!-- m_ActiveAdmin::Comment -->
<g id="node1" class="node">
<title>m_ActiveAdmin::Comment</title>
<path fill="none" stroke="black" d="M12,-513.5C12,-513.5 132,-513.5 132,-513.5 138,-513.5 144,-519.5 144,-525.5 144,-525.5 144,-609.5 144,-609.5 144,-615.5 138,-621.5 132,-621.5 132,-621.5 12,-621.5 12,-621.5 6,-621.5 0,-615.5 0,-609.5 0,-609.5 0,-525.5 0,-525.5 0,-519.5 6,-513.5 12,-513.5"/>
<text text-anchor="start" x="6.5" y="-608.7" font-family="Arial Bold" font-size="11.00">ActiveAdmin::Comment</text>
<polyline fill="none" stroke="black" points="0,-601.5 144,-601.5 "/>
<text text-anchor="start" x="7" y="-588.5" font-family="Arial" font-size="10.00">author_id </text>
<text text-anchor="start" x="50" y="-588.5" font-family="Arial Italic" font-size="10.00" fill="#999999">integer (8)</text>
<text text-anchor="start" x="7" y="-575.5" font-family="Arial" font-size="10.00">author_type </text>
<text text-anchor="start" x="62" y="-575.5" font-family="Arial Italic" font-size="10.00" fill="#999999">string</text>
<text text-anchor="start" x="7" y="-562.5" font-family="Arial" font-size="10.00">body </text>
<text text-anchor="start" x="32" y="-562.5" font-family="Arial Italic" font-size="10.00" fill="#999999">text ∗</text>
<text text-anchor="start" x="7" y="-549.5" font-family="Arial" font-size="10.00">namespace </text>
<text text-anchor="start" x="61" y="-549.5" font-family="Arial Italic" font-size="10.00" fill="#999999">string ∗</text>
<text text-anchor="start" x="7" y="-536.5" font-family="Arial" font-size="10.00">resource_id </text>
<text text-anchor="start" x="61" y="-536.5" font-family="Arial Italic" font-size="10.00" fill="#999999">integer (8)</text>
<text text-anchor="start" x="7" y="-523.5" font-family="Arial" font-size="10.00">resource_type </text>
<text text-anchor="start" x="72" y="-523.5" font-family="Arial Italic" font-size="10.00" fill="#999999">string</text>
</g>
<!-- m_ActiveStorage::Attachment -->
<g id="node2" class="node">
<title>m_ActiveStorage::Attachment</title>
<path fill="none" stroke="black" d="M192.5,-165C192.5,-165 321.5,-165 321.5,-165 327.5,-165 333.5,-171 333.5,-177 333.5,-177 333.5,-209 333.5,-209 333.5,-215 327.5,-221 321.5,-221 321.5,-221 192.5,-221 192.5,-221 186.5,-221 180.5,-215 180.5,-209 180.5,-209 180.5,-177 180.5,-177 180.5,-171 186.5,-165 192.5,-165"/>
<text text-anchor="start" x="186" y="-208.2" font-family="Arial Bold" font-size="11.00">ActiveStorage::Attachment</text>
<polyline fill="none" stroke="black" points="180.5,-201 333.5,-201 "/>
<text text-anchor="start" x="192" y="-188" font-family="Arial" font-size="10.00">name </text>
<text text-anchor="start" x="220" y="-188" font-family="Arial Italic" font-size="10.00" fill="#999999">string ∗</text>
<text text-anchor="start" x="192" y="-175" font-family="Arial" font-size="10.00">record_type </text>
<text text-anchor="start" x="247" y="-175" font-family="Arial Italic" font-size="10.00" fill="#999999">string ∗</text>
</g>
<!-- m_ActiveStorage::Blob -->
<g id="node3" class="node">
<title>m_ActiveStorage::Blob</title>
<path fill="none" stroke="black" d="M197,-342.5C197,-342.5 317,-342.5 317,-342.5 323,-342.5 329,-348.5 329,-354.5 329,-354.5 329,-451.5 329,-451.5 329,-457.5 323,-463.5 317,-463.5 317,-463.5 197,-463.5 197,-463.5 191,-463.5 185,-457.5 185,-451.5 185,-451.5 185,-354.5 185,-354.5 185,-348.5 191,-342.5 197,-342.5"/>
<text text-anchor="start" x="201.5" y="-450.7" font-family="Arial Bold" font-size="11.00">ActiveStorage::Blob</text>
<polyline fill="none" stroke="black" points="185,-443.5 329,-443.5 "/>
<text text-anchor="start" x="192" y="-430" font-family="Arial" font-size="10.00">byte_size </text>
<text text-anchor="start" x="238" y="-430" font-family="Arial Italic" font-size="10.00" fill="#999999">integer (8) ∗</text>
<text text-anchor="start" x="192" y="-417" font-family="Arial" font-size="10.00">checksum </text>
<text text-anchor="start" x="241" y="-417" font-family="Arial Italic" font-size="10.00" fill="#999999">string ∗</text>
<text text-anchor="start" x="192" y="-404" font-family="Arial" font-size="10.00">content_type </text>
<text text-anchor="start" x="252" y="-404" font-family="Arial Italic" font-size="10.00" fill="#999999">string</text>
<text text-anchor="start" x="192" y="-391" font-family="Arial" font-size="10.00">filename </text>
<text text-anchor="start" x="232" y="-391" font-family="Arial Italic" font-size="10.00" fill="#999999">string ∗</text>
<text text-anchor="start" x="192" y="-378" font-family="Arial" font-size="10.00">key </text>
<text text-anchor="start" x="211" y="-378" font-family="Arial Italic" font-size="10.00" fill="#999999">string ∗</text>
<text text-anchor="start" x="192" y="-365" font-family="Arial" font-size="10.00">metadata </text>
<text text-anchor="start" x="236" y="-365" font-family="Arial Italic" font-size="10.00" fill="#999999">text</text>
<text text-anchor="start" x="192" y="-352" font-family="Arial" font-size="10.00">service_name </text>
<text text-anchor="start" x="256" y="-352" font-family="Arial Italic" font-size="10.00" fill="#999999">string ∗</text>
</g>
<!-- m_ActiveStorage::Blob&#45;&gt;m_ActiveStorage::Attachment -->
<g id="edge2" class="edge">
<title>m_ActiveStorage::Blob&#45;&gt;m_ActiveStorage::Attachment</title>
<path fill="none" stroke="black" d="M257,-342.4C257,-302.42 257,-251.67 257,-221.07"/>
</g>
<!-- m_ActiveStorage::Blob&#45;&gt;m_ActiveStorage::Blob -->
<g id="edge5" class="edge">
<title>m_ActiveStorage::Blob&#45;&gt;m_ActiveStorage::Blob</title>
<path fill="none" stroke="black" stroke-dasharray="1,5" d="M329.18,-433.07C345.79,-430.48 358,-420.46 358,-403 358,-385.54 345.79,-375.52 329.18,-372.93"/>
</g>
<!-- m_ActiveStorage::VariantRecord -->
<g id="node4" class="node">
<title>m_ActiveStorage::VariantRecord</title>
<path fill="none" stroke="black" d="M185.5,-546C185.5,-546 328.5,-546 328.5,-546 334.5,-546 340.5,-552 340.5,-558 340.5,-558 340.5,-577 340.5,-577 340.5,-583 334.5,-589 328.5,-589 328.5,-589 185.5,-589 185.5,-589 179.5,-589 173.5,-583 173.5,-577 173.5,-577 173.5,-558 173.5,-558 173.5,-552 179.5,-546 185.5,-546"/>
<text text-anchor="start" x="179" y="-576.2" font-family="Arial Bold" font-size="11.00">ActiveStorage::VariantRecord</text>
<polyline fill="none" stroke="black" points="173.5,-569 340.5,-569 "/>
<text text-anchor="start" x="192" y="-555.5" font-family="Arial" font-size="10.00">variation_digest </text>
<text text-anchor="start" x="264" y="-555.5" font-family="Arial Italic" font-size="10.00" fill="#999999">string ∗</text>
</g>
<!-- m_ActiveStorage::VariantRecord&#45;&gt;m_ActiveStorage::Attachment -->
<g id="edge3" class="edge">
<title>m_ActiveStorage::VariantRecord&#45;&gt;m_ActiveStorage::Attachment</title>
<path fill="none" stroke="black" d="M227.06,-545.68C206.72,-529.59 181.49,-505.31 170,-477 145.26,-416.05 151.43,-392.1 170,-329 182.2,-287.54 211.52,-246.8 232.76,-221.1"/>
</g>
<!-- m_ActiveStorage::VariantRecord&#45;&gt;m_ActiveStorage::Blob -->
<g id="edge1" class="edge">
<title>m_ActiveStorage::VariantRecord&#45;&gt;m_ActiveStorage::Blob</title>
<path fill="none" stroke="black" d="M257,-545.92C257,-527.43 257,-499.21 257,-472.78"/>
<polygon fill="black" stroke="black" points="260.15,-472.53 257,-463.53 253.85,-472.53 260.15,-472.53"/>
</g>
<!-- m_Axis -->
<g id="node5" class="node">
<title>m_Axis</title>
<path fill="none" stroke="black" d="M689,-546C689,-546 809,-546 809,-546 815,-546 821,-552 821,-558 821,-558 821,-577 821,-577 821,-583 815,-589 809,-589 809,-589 689,-589 689,-589 683,-589 677,-583 677,-577 677,-577 677,-558 677,-558 677,-552 683,-546 689,-546"/>
<text text-anchor="start" x="735" y="-576.2" font-family="Arial Bold" font-size="11.00">Axis</text>
<polyline fill="none" stroke="black" points="677,-569 821,-569 "/>
<text text-anchor="start" x="684" y="-555.5" font-family="Arial" font-size="10.00">name </text>
<text text-anchor="start" x="712" y="-555.5" font-family="Arial Italic" font-size="10.00" fill="#999999">string ∗ U</text>
</g>
<!-- m_Subject -->
<g id="node11" class="node">
<title>m_Subject</title>
<path fill="none" stroke="black" d="M776,-381.5C776,-381.5 896,-381.5 896,-381.5 902,-381.5 908,-387.5 908,-393.5 908,-393.5 908,-412.5 908,-412.5 908,-418.5 902,-424.5 896,-424.5 896,-424.5 776,-424.5 776,-424.5 770,-424.5 764,-418.5 764,-412.5 764,-412.5 764,-393.5 764,-393.5 764,-387.5 770,-381.5 776,-381.5"/>
<text text-anchor="start" x="814" y="-411.7" font-family="Arial Bold" font-size="11.00">Subject</text>
<polyline fill="none" stroke="black" points="764,-404.5 908,-404.5 "/>
<text text-anchor="start" x="771" y="-391" font-family="Arial" font-size="10.00">name </text>
<text text-anchor="start" x="799" y="-391" font-family="Arial Italic" font-size="10.00" fill="#999999">string ∗ U</text>
</g>
<!-- m_Axis&#45;&gt;m_Subject -->
<g id="edge13" class="edge">
<title>m_Axis&#45;&gt;m_Subject</title>
<path fill="none" stroke="black" d="M760.02,-545.92C775.34,-517.3 803.15,-465.36 820.54,-432.88"/>
<polygon fill="black" stroke="black" points="823.46,-434.09 824.93,-424.67 817.91,-431.12 823.46,-434.09"/>
</g>
<!-- m_Category -->
<g id="node6" class="node">
<title>m_Category</title>
<path fill="none" stroke="black" d="M862,-546C862,-546 982,-546 982,-546 988,-546 994,-552 994,-558 994,-558 994,-577 994,-577 994,-583 988,-589 982,-589 982,-589 862,-589 862,-589 856,-589 850,-583 850,-577 850,-577 850,-558 850,-558 850,-552 856,-546 862,-546"/>
<text text-anchor="start" x="895.5" y="-576.2" font-family="Arial Bold" font-size="11.00">Category</text>
<polyline fill="none" stroke="black" points="850,-569 994,-569 "/>
<text text-anchor="start" x="857" y="-555.5" font-family="Arial" font-size="10.00">name </text>
<text text-anchor="start" x="885" y="-555.5" font-family="Arial Italic" font-size="10.00" fill="#999999">string ∗ U</text>
</g>
<!-- m_Category&#45;&gt;m_Subject -->
<g id="edge12" class="edge">
<title>m_Category&#45;&gt;m_Subject</title>
<path fill="none" stroke="black" d="M911.11,-545.92C895.96,-517.3 868.48,-465.36 851.28,-432.88"/>
<polygon fill="black" stroke="black" points="853.93,-431.15 846.94,-424.67 848.36,-434.1 853.93,-431.15"/>
</g>
<!-- m_CkEditorUpload -->
<g id="node7" class="node">
<title>m_CkEditorUpload</title>
<path fill="none" stroke="black" d="M388,-385C388,-385 508,-385 508,-385 514,-385 520,-391 520,-397 520,-397 520,-409 520,-409 520,-415 514,-421 508,-421 508,-421 388,-421 388,-421 382,-421 376,-415 376,-409 376,-409 376,-397 376,-397 376,-391 382,-385 388,-385"/>
<text text-anchor="start" x="403.5" y="-400.2" font-family="Arial Bold" font-size="11.00">CkEditorUpload</text>
</g>
<!-- m_CkEditorUpload&#45;&gt;m_ActiveStorage::Attachment -->
<g id="edge4" class="edge">
<title>m_CkEditorUpload&#45;&gt;m_ActiveStorage::Attachment</title>
<path fill="none" stroke="black" d="M432.37,-384.98C399.32,-348.98 322.08,-264.88 282.05,-221.28"/>
</g>
<!-- m_Question -->
<g id="node8" class="node">
<title>m_Question</title>
<path fill="none" stroke="black" d="M737,-93.5C737,-93.5 857,-93.5 857,-93.5 863,-93.5 869,-99.5 869,-105.5 869,-105.5 869,-280.5 869,-280.5 869,-286.5 863,-292.5 857,-292.5 857,-292.5 737,-292.5 737,-292.5 731,-292.5 725,-286.5 725,-280.5 725,-280.5 725,-105.5 725,-105.5 725,-99.5 731,-93.5 737,-93.5"/>
<text text-anchor="start" x="771" y="-279.7" font-family="Arial Bold" font-size="11.00">Question</text>
<polyline fill="none" stroke="black" points="725,-272.5 869,-272.5 "/>
<text text-anchor="start" x="732" y="-259" font-family="Arial" font-size="10.00">alternatives </text>
<text text-anchor="start" x="786" y="-259" font-family="Arial Italic" font-size="10.00" fill="#999999">jsonb ∗</text>
<text text-anchor="start" x="732" y="-246" font-family="Arial" font-size="10.00">authorship </text>
<text text-anchor="start" x="781" y="-246" font-family="Arial Italic" font-size="10.00" fill="#999999">string</text>
<text text-anchor="start" x="732" y="-233" font-family="Arial" font-size="10.00">authorship_year </text>
<text text-anchor="start" x="805" y="-233" font-family="Arial Italic" font-size="10.00" fill="#999999">string</text>
<text text-anchor="start" x="732" y="-220" font-family="Arial" font-size="10.00">bloom_taxonomy </text>
<text text-anchor="start" x="810" y="-220" font-family="Arial Italic" font-size="10.00" fill="#999999">string</text>
<text text-anchor="start" x="732" y="-207" font-family="Arial" font-size="10.00">body </text>
<text text-anchor="start" x="757" y="-207" font-family="Arial Italic" font-size="10.00" fill="#999999">text</text>
<text text-anchor="start" x="732" y="-194" font-family="Arial" font-size="10.00">check_type </text>
<text text-anchor="start" x="786" y="-194" font-family="Arial Italic" font-size="10.00" fill="#999999">string</text>
<text text-anchor="start" x="732" y="-181" font-family="Arial" font-size="10.00">difficulty </text>
<text text-anchor="start" x="772" y="-181" font-family="Arial Italic" font-size="10.00" fill="#999999">string</text>
<text text-anchor="start" x="732" y="-168" font-family="Arial" font-size="10.00">explanation </text>
<text text-anchor="start" x="785" y="-168" font-family="Arial Italic" font-size="10.00" fill="#999999">text</text>
<text text-anchor="start" x="732" y="-155" font-family="Arial" font-size="10.00">instruction </text>
<text text-anchor="start" x="781" y="-155" font-family="Arial Italic" font-size="10.00" fill="#999999">text</text>
<text text-anchor="start" x="732" y="-142" font-family="Arial" font-size="10.00">intention </text>
<text text-anchor="start" x="772" y="-142" font-family="Arial Italic" font-size="10.00" fill="#999999">text</text>
<text text-anchor="start" x="732" y="-129" font-family="Arial" font-size="10.00">references </text>
<text text-anchor="start" x="781" y="-129" font-family="Arial Italic" font-size="10.00" fill="#999999">text</text>
<text text-anchor="start" x="732" y="-116" font-family="Arial" font-size="10.00">status </text>
<text text-anchor="start" x="763" y="-116" font-family="Arial Italic" font-size="10.00" fill="#999999">string ∗</text>
<text text-anchor="start" x="732" y="-103" font-family="Arial" font-size="10.00">support </text>
<text text-anchor="start" x="768" y="-103" font-family="Arial Italic" font-size="10.00" fill="#999999">text</text>
</g>
<!-- m_ReviewMessage -->
<g id="node9" class="node">
<title>m_ReviewMessage</title>
<path fill="none" stroke="black" d="M737,-0.5C737,-0.5 857,-0.5 857,-0.5 863,-0.5 869,-6.5 869,-12.5 869,-12.5 869,-44.5 869,-44.5 869,-50.5 863,-56.5 857,-56.5 857,-56.5 737,-56.5 737,-56.5 731,-56.5 725,-50.5 725,-44.5 725,-44.5 725,-12.5 725,-12.5 725,-6.5 731,-0.5 737,-0.5"/>
<text text-anchor="start" x="753" y="-43.7" font-family="Arial Bold" font-size="11.00">ReviewMessage</text>
<polyline fill="none" stroke="black" points="725,-36.5 869,-36.5 "/>
<text text-anchor="start" x="732" y="-23.5" font-family="Arial" font-size="10.00">content </text>
<text text-anchor="start" x="768" y="-23.5" font-family="Arial Italic" font-size="10.00" fill="#999999">string ∗</text>
<text text-anchor="start" x="732" y="-10.5" font-family="Arial" font-size="10.00">feedback_type </text>
<text text-anchor="start" x="799" y="-10.5" font-family="Arial Italic" font-size="10.00" fill="#999999">string</text>
</g>
<!-- m_Question&#45;&gt;m_ReviewMessage -->
<g id="edge10" class="edge">
<title>m_Question&#45;&gt;m_ReviewMessage</title>
<path fill="none" stroke="black" d="M797,-93.26C797,-83.5 797,-74.1 797,-65.65"/>
<polygon fill="black" stroke="black" points="800.15,-65.55 797,-56.55 793.85,-65.55 800.15,-65.55"/>
</g>
<!-- m_ReviewRequest -->
<g id="node10" class="node">
<title>m_ReviewRequest</title>
<path fill="none" stroke="black" d="M564,-7C564,-7 684,-7 684,-7 690,-7 696,-13 696,-19 696,-19 696,-38 696,-38 696,-44 690,-50 684,-50 684,-50 564,-50 564,-50 558,-50 552,-44 552,-38 552,-38 552,-19 552,-19 552,-13 558,-7 564,-7"/>
<text text-anchor="start" x="581" y="-37.2" font-family="Arial Bold" font-size="11.00">ReviewRequest</text>
<polyline fill="none" stroke="black" points="552,-30 696,-30 "/>
<text text-anchor="start" x="559" y="-16.5" font-family="Arial" font-size="10.00">answered </text>
<text text-anchor="start" x="605" y="-16.5" font-family="Arial Italic" font-size="10.00" fill="#999999">string</text>
</g>
<!-- m_Question&#45;&gt;m_ReviewRequest -->
<g id="edge7" class="edge">
<title>m_Question&#45;&gt;m_ReviewRequest</title>
<path fill="none" stroke="black" d="M724.89,-124.26C699.51,-100.42 672.43,-74.99 652.72,-56.48"/>
<polygon fill="black" stroke="black" points="654.79,-54.1 646.07,-50.23 650.48,-58.69 654.79,-54.1"/>
</g>
<!-- m_Subject&#45;&gt;m_Question -->
<g id="edge14" class="edge">
<title>m_Subject&#45;&gt;m_Question</title>
<path fill="none" stroke="black" d="M832.12,-381.3C828.52,-362.12 822.88,-332.05 817.17,-301.57"/>
<polygon fill="black" stroke="black" points="820.23,-300.81 815.48,-292.54 814.04,-301.97 820.23,-300.81"/>
</g>
<!-- m_User -->
<g id="node12" class="node">
<title>m_User</title>
<path fill="none" stroke="black" d="M561.5,-329.5C561.5,-329.5 722.5,-329.5 722.5,-329.5 728.5,-329.5 734.5,-335.5 734.5,-341.5 734.5,-341.5 734.5,-464.5 734.5,-464.5 734.5,-470.5 728.5,-476.5 722.5,-476.5 722.5,-476.5 561.5,-476.5 561.5,-476.5 555.5,-476.5 549.5,-470.5 549.5,-464.5 549.5,-464.5 549.5,-341.5 549.5,-341.5 549.5,-335.5 555.5,-329.5 561.5,-329.5"/>
<text text-anchor="start" x="627.5" y="-463.7" font-family="Arial Bold" font-size="11.00">User</text>
<polyline fill="none" stroke="black" points="549.5,-456.5 734.5,-456.5 "/>
<text text-anchor="start" x="557" y="-443" font-family="Arial" font-size="10.00">avatar_url </text>
<text text-anchor="start" x="603" y="-443" font-family="Arial Italic" font-size="10.00" fill="#999999">string</text>
<text text-anchor="start" x="557" y="-430" font-family="Arial" font-size="10.00">deleted_at </text>
<text text-anchor="start" x="606" y="-430" font-family="Arial Italic" font-size="10.00" fill="#999999">datetime (6,0)</text>
<text text-anchor="start" x="557" y="-417" font-family="Arial" font-size="10.00">email </text>
<text text-anchor="start" x="584" y="-417" font-family="Arial Italic" font-size="10.00" fill="#999999">string ∗ U</text>
<text text-anchor="start" x="557" y="-404" font-family="Arial" font-size="10.00">encrypted_password </text>
<text text-anchor="start" x="651" y="-404" font-family="Arial Italic" font-size="10.00" fill="#999999">string ∗</text>
<text text-anchor="start" x="557" y="-391" font-family="Arial" font-size="10.00">name </text>
<text text-anchor="start" x="585" y="-391" font-family="Arial Italic" font-size="10.00" fill="#999999">string ∗</text>
<text text-anchor="start" x="557" y="-378" font-family="Arial" font-size="10.00">remember_created_at </text>
<text text-anchor="start" x="655" y="-378" font-family="Arial Italic" font-size="10.00" fill="#999999">datetime (6,0)</text>
<text text-anchor="start" x="557" y="-365" font-family="Arial" font-size="10.00">reset_password_sent_at </text>
<text text-anchor="start" x="667" y="-365" font-family="Arial Italic" font-size="10.00" fill="#999999">datetime (6,0)</text>
<text text-anchor="start" x="557" y="-352" font-family="Arial" font-size="10.00">reset_password_token </text>
<text text-anchor="start" x="659" y="-352" font-family="Arial Italic" font-size="10.00" fill="#999999">string</text>
<text text-anchor="start" x="557" y="-339" font-family="Arial" font-size="10.00">roles </text>
<text text-anchor="start" x="582" y="-339" font-family="Arial Italic" font-size="10.00" fill="#999999">string</text>
</g>
<!-- m_User&#45;&gt;m_Question -->
<g id="edge15" class="edge">
<title>m_User&#45;&gt;m_Question</title>
<path fill="none" stroke="black" d="M696.21,-329.25C703.73,-319.16 711.57,-308.64 719.41,-298.12"/>
<polygon fill="black" stroke="black" points="721.99,-299.93 724.84,-290.84 716.94,-296.17 721.99,-299.93"/>
</g>
<!-- m_User&#45;&gt;m_ReviewMessage -->
<g id="edge11" class="edge">
<title>m_User&#45;&gt;m_ReviewMessage</title>
<path fill="none" stroke="black" d="M652,-192C661.91,-141.75 676.61,-130.96 711,-93 721.11,-81.84 733.46,-71.37 745.6,-62.28"/>
<polygon fill="black" stroke="black" points="747.7,-64.65 753.11,-56.8 743.99,-59.56 747.7,-64.65"/>
</g>
<!-- m_User&#45;&gt;m_ReviewRequest -->
<g id="edge8" class="edge">
<title>m_User&#45;&gt;m_ReviewRequest</title>
<path fill="none" stroke="black" d="M640.31,-329.17C640.67,-288.97 643.26,-238.34 652,-194"/>
<path fill="none" stroke="black" d="M652,-192C661.16,-145.53 646.79,-91.25 635.47,-58.67"/>
<polygon fill="black" stroke="black" points="638.39,-57.48 632.38,-50.08 632.46,-59.61 638.39,-57.48"/>
</g>
</g>
</svg>
