<?xml version="1.0" encoding="UTF-8" standalone="no"?>
<!DOCTYPE svg PUBLIC "-//W3C//DTD SVG 1.1//EN"
 "http://www.w3.org/Graphics/SVG/1.1/DTD/svg11.dtd">
<!-- Generated by graphviz version 4.0.0 (0)
 -->
<!-- Title: ProgressTest Pages: 1 -->
<svg width="416pt" height="204pt"
 viewBox="0.00 0.00 416.10 203.60" xmlns="http://www.w3.org/2000/svg" xmlns:xlink="http://www.w3.org/1999/xlink">
<g id="graph0" class="graph" transform="scale(1 1) rotate(0) translate(28.8 174.8)">
<title>ProgressTest</title>
<polygon fill="white" stroke="transparent" points="-28.8,28.8 -28.8,-174.8 387.3,-174.8 387.3,28.8 -28.8,28.8"/>
<text text-anchor="middle" x="179.25" y="-131.6" font-family="Arial Bold" font-size="13.00">Progress Test &#45; Models</text>
<!-- m_ActiveAdmin::Comment -->
<g id="node1" class="node">
<title>m_ActiveAdmin::Comment</title>
<path fill="none" stroke="black" d="M12,-0.5C12,-0.5 132,-0.5 132,-0.5 138,-0.5 144,-6.5 144,-12.5 144,-12.5 144,-96.5 144,-96.5 144,-102.5 138,-108.5 132,-108.5 132,-108.5 12,-108.5 12,-108.5 6,-108.5 0,-102.5 0,-96.5 0,-96.5 0,-12.5 0,-12.5 0,-6.5 6,-0.5 12,-0.5"/>
<text text-anchor="start" x="6.5" y="-95.7" font-family="Arial Bold" font-size="11.00">ActiveAdmin::Comment</text>
<polyline fill="none" stroke="black" points="0,-88.5 144,-88.5 "/>
<text text-anchor="start" x="7" y="-75.5" font-family="Arial" font-size="10.00">author_id </text>
<text text-anchor="start" x="50" y="-75.5" font-family="Arial Italic" font-size="10.00" fill="#999999">integer (8)</text>
<text text-anchor="start" x="7" y="-62.5" font-family="Arial" font-size="10.00">author_type </text>
<text text-anchor="start" x="62" y="-62.5" font-family="Arial Italic" font-size="10.00" fill="#999999">string</text>
<text text-anchor="start" x="7" y="-49.5" font-family="Arial" font-size="10.00">body </text>
<text text-anchor="start" x="32" y="-49.5" font-family="Arial Italic" font-size="10.00" fill="#999999">text ∗</text>
<text text-anchor="start" x="7" y="-36.5" font-family="Arial" font-size="10.00">namespace </text>
<text text-anchor="start" x="61" y="-36.5" font-family="Arial Italic" font-size="10.00" fill="#999999">string ∗</text>
<text text-anchor="start" x="7" y="-23.5" font-family="Arial" font-size="10.00">resource_id </text>
<text text-anchor="start" x="61" y="-23.5" font-family="Arial Italic" font-size="10.00" fill="#999999">integer (8)</text>
<text text-anchor="start" x="7" y="-10.5" font-family="Arial" font-size="10.00">resource_type </text>
<text text-anchor="start" x="72" y="-10.5" font-family="Arial Italic" font-size="10.00" fill="#999999">string</text>
</g>
<!-- m_User -->
<g id="node2" class="node">
<title>m_User</title>
<path fill="none" stroke="black" d="M185.5,-0.5C185.5,-0.5 346.5,-0.5 346.5,-0.5 352.5,-0.5 358.5,-6.5 358.5,-12.5 358.5,-12.5 358.5,-96.5 358.5,-96.5 358.5,-102.5 352.5,-108.5 346.5,-108.5 346.5,-108.5 185.5,-108.5 185.5,-108.5 179.5,-108.5 173.5,-102.5 173.5,-96.5 173.5,-96.5 173.5,-12.5 173.5,-12.5 173.5,-6.5 179.5,-0.5 185.5,-0.5"/>
<text text-anchor="start" x="251.5" y="-95.7" font-family="Arial Bold" font-size="11.00">User</text>
<polyline fill="none" stroke="black" points="173.5,-88.5 358.5,-88.5 "/>
<text text-anchor="start" x="181" y="-75.5" font-family="Arial" font-size="10.00">email </text>
<text text-anchor="start" x="208" y="-75.5" font-family="Arial Italic" font-size="10.00" fill="#999999">string ∗ U</text>
<text text-anchor="start" x="181" y="-62.5" font-family="Arial" font-size="10.00">encrypted_password </text>
<text text-anchor="start" x="275" y="-62.5" font-family="Arial Italic" font-size="10.00" fill="#999999">string ∗</text>
<text text-anchor="start" x="181" y="-49.5" font-family="Arial" font-size="10.00">name </text>
<text text-anchor="start" x="209" y="-49.5" font-family="Arial Italic" font-size="10.00" fill="#999999">string ∗</text>
<text text-anchor="start" x="181" y="-36.5" font-family="Arial" font-size="10.00">remember_created_at </text>
<text text-anchor="start" x="279" y="-36.5" font-family="Arial Italic" font-size="10.00" fill="#999999">datetime (6,0)</text>
<text text-anchor="start" x="181" y="-23.5" font-family="Arial" font-size="10.00">reset_password_sent_at </text>
<text text-anchor="start" x="291" y="-23.5" font-family="Arial Italic" font-size="10.00" fill="#999999">datetime (6,0)</text>
<text text-anchor="start" x="181" y="-10.5" font-family="Arial" font-size="10.00">reset_password_token </text>
<text text-anchor="start" x="283" y="-10.5" font-family="Arial Italic" font-size="10.00" fill="#999999">string</text>
</g>
</g>
</svg>
