<!DOCTYPE svg PUBLIC "-//W3C//DTD SVG 20010904//EN" "http://www.w3.org/TR/2001/REC-SVG-20010904/DTD/svg10.dtd">
<svg version="1.0" xmlns="http://www.w3.org/2000/svg" width="500px" height="181px" viewBox="0 0 5000 1810" preserveAspectRatio="xMidYMid meet">
<g id="layer101" fill="#ffffff" stroke="none">
 <path d="M293 1203 c161 -196 297 -358 303 -360 5 -2 20 17 32 42 l22 45 -202 315 -203 315 -122 0 -123 0 293 -357z"/>
 <path d="M280 1554 c0 -7 262 -417 351 -550 35 -52 72 -90 135 -139 96 -74 88 -74 133 9 l23 41 -150 320 -149 320 -172 3 c-94 1 -171 0 -171 -4z"/>
 <path d="M650 1555 c0 -17 305 -654 328 -685 l27 -37 45 21 c37 18 45 26 43 46 -2 23 -30 234 -68 520 -8 58 -15 113 -15 123 0 16 -15 17 -180 17 -99 0 -180 -2 -180 -5z"/>
 <path d="M1030 1548 c0 -7 20 -164 45 -348 l45 -336 124 -298 c120 -287 132 -314 139 -305 2 2 22 69 44 149 41 143 193 673 278 965 24 83 47 158 50 168 7 16 -14 17 -359 17 -286 0 -366 -3 -366 -12z"/>
 <path d="M1970 1551 c-79 -17 -126 -57 -162 -136 -20 -46 -22 -68 -26 -287 -2 -131 -1 -249 2 -263 6 -24 10 -25 81 -25 l75 0 0 231 c0 193 3 237 16 265 23 48 59 64 143 64 63 0 74 -3 101 -27 44 -39 49 -78 50 -320 l0 -213 75 0 75 0 0 259 c0 279 -5 311 -55 377 -43 56 -103 78 -230 80 -60 2 -126 -1 -145 -5z"/>
 <path d="M2386 1545 c-11 -30 -6 -92 11 -131 13 -31 17 -83 21 -254 5 -242 6 -244 81 -288 41 -24 58 -27 161 -31 187 -6 260 23 313 123 21 39 22 52 22 316 l0 275 -69 3 c-49 2 -72 -1 -77 -10 -5 -7 -9 -119 -9 -249 l0 -237 -28 -30 c-55 -59 -199 -52 -246 11 -20 26 -21 45 -26 270 l-5 242 -71 3 c-59 2 -73 0 -78 -13z"/>
 <path d="M3018 1303 c2 -211 0 -267 -13 -305 -15 -48 -20 -124 -9 -152 9 -23 159 -23 168 0 3 9 6 167 6 353 0 249 -3 340 -12 349 -7 7 -40 12 -77 12 l-66 0 3 -257z"/>
 <path d="M3197 1553 c-4 -3 -7 -197 -7 -430 0 -464 0 -466 59 -516 37 -31 79 -40 181 -41 l75 -1 0 65 0 65 -60 3 c-32 2 -65 8 -72 14 -8 6 -13 33 -13 64 l0 53 73 3 c66 3 72 5 75 25 2 14 -9 38 -29 63 -29 36 -37 40 -76 40 l-43 0 0 284 c0 156 -3 291 -6 300 -5 13 -22 16 -78 16 -40 0 -76 -3 -79 -7z"/>
 <path d="M3625 1546 c-92 -29 -139 -70 -177 -151 -21 -45 -23 -65 -23 -195 0 -103 4 -155 14 -180 26 -63 72 -117 124 -146 48 -27 60 -29 157 -29 121 0 160 15 222 83 53 59 73 121 73 227 l0 90 -217 3 -218 2 0 38 c0 20 9 51 20 69 34 57 62 67 190 73 l115 5 0 60 0 60 -120 2 c-75 1 -135 -3 -160 -11z m235 -437 c0 -45 -29 -98 -64 -120 -39 -24 -108 -25 -148 -1 -35 20 -68 79 -68 122 l0 30 140 0 140 0 0 -31z"/>
 <path d="M3975 1537 c-4 -13 -5 -41 -3 -63 l3 -39 155 -5 c85 -3 161 -9 168 -13 6 -5 12 -26 12 -47 0 -39 -1 -40 -96 -97 -170 -103 -170 -103 -178 -169 -4 -31 -16 -78 -27 -103 l-20 -45 29 -35 c46 -56 103 -81 197 -84 l80 -2 0 65 0 65 -68 3 c-58 3 -69 6 -83 27 -24 37 -7 54 128 135 68 41 137 88 155 105 85 84 52 239 -64 296 -44 22 -63 24 -215 27 l-167 4 -6 -25z"/>
 <path d="M4573 1546 c-47 -15 -113 -54 -113 -66 0 -4 7 -24 15 -43 19 -45 19 -117 1 -160 -7 -18 -33 -50 -56 -70 l-43 -36 6 -62 c12 -112 74 -206 165 -251 66 -32 215 -33 283 -2 58 27 109 78 140 140 22 46 24 60 24 204 0 143 -2 159 -23 202 -28 55 -85 111 -139 134 -52 22 -205 28 -260 10z m198 -159 c41 -28 57 -75 58 -174 2 -156 -35 -222 -126 -230 -58 -5 -103 19 -130 69 -23 43 -25 235 -4 287 30 69 133 94 202 48z"/>
 <path d="M2994 717 c-3 -8 -4 -43 -2 -78 l3 -64 85 0 85 0 0 75 0 75 -83 3 c-63 2 -84 0 -88 -11z"/>
 </g>

</svg>